# xmcd
#
# Track frame offsets:
# 150
# 10640
# 23042
# 32449
# 43260
# 57857
# 74031
# 88334
# 98289
#
# Disc length: 1503 seconds
#
#
# Revision: 0
# Processed by: cddbd v1.5.2PL0 Copyright (c) Steve Scherf et al.
# Submitted via: FreeRIP 2.945 
#
DISCID=6905dd09
DTITLE=Bill Anderson - Bill Anderson's Christmas
DYEAR=1900
DGENRE=Country
TTITLE0=Christmas Time's A Comin'
TTITLE1=Blue Christmas
TTITLE2=Santa Claus Is Coming To Town
TTITLE3=Silver Bells
TTITLE4=Po' Folks Christmas
TTITLE5=My Christmas List Grows Shorter Every Year
TTITLE6=Medley Oh Holy Night and Oh, Little Town Of Bethlehem and Away In A Manger
TTITLE7=Medley Joy  and Hark! and Away In A Manger
TTITLE8=Silent Night
EXTD=
EXTT0=
EXTT1=
EXTT2=
EXTT3=
EXTT4=
EXTT5=
EXTT6=
EXTT7=
EXTT8=
PLAYORDER=
